<svg id="Vectorportal.com" xmlns="http://www.w3.org/2000/svg" viewBox="0 0 549.9 393.72"><title>chef-menu-vectorportal</title><path d="M232.61,185.18h.21l-.13-.16,2.37-5c3.61.85,9.56,2.28,10.49,1.33.17-.18,0-.41-.28-.67-1.16-.91-5.23-2.11-8.82-3.14.08-.14.16-.28.25-.42,1.82.33,3.57.6,5,.76,2.35.25,3,.1,3.3-.22s-.72-1.09-3.33-1.93c-1.12-.36-2.38-.74-3.66-1.12l0,0c1.09.24,2.41.59,3.37.77,2.29.43,2.78.23,3.14-.17s-.26-.9-2.1-1.65c-1-.42-2.26-.88-3.55-1.35l.08-.32,2.77.73c1.32.33,2.55.67,3.46.88,2.82.65,3.09.31,3.46-.09s-1.1-1.23-2.27-1.78c-1.69-.8-4-1.73-6.2-2.53l6.43-13.69,95.73,24.38-6.5,13.83c-1-.14-1.94-.26-2.85-.36-4.1-.47-6.2-.44-6.25.08s1.79,1.42,7.73,2.87h0l.14,0-.2.43c-1.32-.2-2.55-.37-3.55-.47-1.49-.14-1.95.08-2.07.36a.76.76,0,0,0,0,.15c-.07.28.29.8,2.46,1.52.6.2,1.46.41,2.15.62l-.06.11c-1.38-.29-2.7-.55-3.85-.76-2.15-.38-3.24-.36-3.29.13s.09.74,2,1.57c1.1.47,2.61,1,4,1.49l-.23.48c-5.11-1-9.1-1.58-9.18-.81s5,2.42,8,3.27l-5.44,11.58-95.73-24.38Zm98.62,23.7a49.73,49.73,0,0,0,8.89,1.85c24.89,3.49,21.12-6.2,16-10.13-2.64-2-10.14-6.14-15.4-6.29l-1.89-.33c3.14-.84,10.33-1.49,16-1.28a80.42,80.42,0,0,0-16.06.14l1.71-3.65L360,173.43l12.28.71L361,172.67l1.72-1.38-20.38,14.06,2.73-5.82L244.71,154l-2,4.31-3.34-17.81.08,1.3-10.06-4.05,10.11,5,1.25,19.78-1.62,3.44a61.82,61.82,0,0,0-12-7,53.32,53.32,0,0,1,10.59,7.33c-.65-.27-1.43-.58-2.34-.92-.73-.26-1.55-.54-2.42-.82s-1.84-.55-2.83-.81-2.05-.48-3.11-.68-2.13-.36-3.16-.46-2-.16-3-.18c-.45,0-.91,0-1.34,0s-.85,0-1.23.06-.78.06-1.13.11l-1,.14c-.61.11-1.21.21-1.67.34l-.7.18-.58.18-.5.16-.4.15-.74.29.83-.25.43-.13.55-.14.63-.15.75-.15c.5-.11,1.13-.18,1.76-.27l1.05-.1c.36,0,.75,0,1.14-.06s.82,0,1.23,0l1.32,0c.91.06,1.86.13,2.83.26s2,.3,2.92.5,1.9.44,2.8.69,1.74.52,2.53.79,1.5.54,2.14.79c1.3.51,2.29,1,3,1.3l.75.37.15.08-.34.7-.94-.31c-4.27-2.28-13.61-2.45-17.38-2.06-7.34.76-18.44,6.66,4.06,15.24,3.1,1.19,5.08,1.84,6.33,2.2h-.84c-.55,0-1.49-.05-2.79-.2-.64-.08-1.37-.18-2.18-.32s-1.68-.31-2.62-.53-1.93-.48-3-.78-2.09-.66-3.16-1.06a48.64,48.64,0,0,1-6.32-2.9,43.65,43.65,0,0,1-5.6-3.66l-.63-.48-.62-.51-.62-.51c-.16-.14-.35-.31-.5-.46a4.5,4.5,0,0,1-1.19-1.85,3.79,3.79,0,0,1,.79-3.41,12.79,12.79,0,0,1,3.22-2.86,33.38,33.38,0,0,1,4.36-2.38,68.28,68.28,0,0,1,9.64-3.49,69.7,69.7,0,0,1,8.21-1.82c1.1-.16,2-.25,2.71-.28.33,0,.6,0,.79,0H229a27.79,27.79,0,0,0-2.82.22,74.78,74.78,0,0,0-8.66,1.62,77.5,77.5,0,0,0-10.37,3.23,39.16,39.16,0,0,0-4.83,2.27,18.86,18.86,0,0,0-2.51,1.67,3.94,3.94,0,0,1-1.35-2.33c-.22-1.62,1-2.89,3.08-3.16,1.88-.25,6.41-4.21,22.41-22.69l.14-.16-.17-.21c-1.6-2,2.73-5.34,4.64-5.35h.07c3.16.22,21.3,2.25,24.83,2.65a89.24,89.24,0,0,0,9.75,3.36c10.6,3.29,25,7.77,26.91,12.74-2.11-.29-4.59-.7-7.21-1.14-7.18-1.19-14.6-2.42-17.32-1.66-1,.27-1.26.75-.94,1.43,1.45,3.06,1.07,6.51-9,5.56l-1.93-.18,1.45.79a18.91,18.91,0,0,0,2.51,1c14.14,5.92,29.36,7,35.2,6.12s5.12-5.87,2.23-8.68c.85.22,1.77.41,2.66.6s1.84.38,2.7.59a15.44,15.44,0,0,1,1.78.55l2.48,1c1.39.56,2.57,1,3.62,1.38-1.27.72-1.52,1.64-.74,2.75,2.91,4.15,20.23,10.65,39.27,17.51l2.92,1.06L348.32,177a13.82,13.82,0,0,1-1.32-1.42c-1.2-2.64.56-3.71,1-4.8,1.74-4-6.13-7.49-16.53-11.94,6.16,1.13,29.9,8.57,34.95,8.49l1.84-.4c5.5,2.39,11.64,5.2,12.78,6.09l.16.23c.78,1.17,2.4,3.6-.79,4.77l-.17.06v.12c-.5,6.11-3.93,13.88-6.69,20.12-.9,2-1.54,3.58-2,4.77l-.58-1.6c-.69-1.89-1.61-4.4-2.6-6.93-.24-.63-.49-1.26-.73-1.88s-.51-1.23-.75-1.83-.48-1.16-.71-1.71-.48-1.06-.69-1.54-.4-.91-.6-1.3l-.54-1-.47-.88.42.88.49,1c.18.39.33.82.52,1.3s.39,1,.6,1.52.41,1.11.62,1.7.42,1.2.64,1.81l.63,1.87c.84,2.5,1.62,5,2.2,6.86.3,1,.54,1.79.71,2.34a31.68,31.68,0,0,0-3.08-3.72,40.9,40.9,0,0,0-5.4-4.73c-.79-.57-1.48-1-2-1.31s-.82-.44-.82-.44.3.15.78.45a22.27,22.27,0,0,1,1.85,1.31,33.85,33.85,0,0,1,4.81,4.67,20.5,20.5,0,0,1,3.85,6.38,6.79,6.79,0,0,1,.33,3.28,4.3,4.3,0,0,1-1.85,2.82,7.82,7.82,0,0,1-2.07,1,15.19,15.19,0,0,1-2.89.58c-1.16.17-2.25.28-3.41.37s-2.35.15-3.56.17a62.33,62.33,0,0,1-7.34-.31,65.71,65.71,0,0,1-6.95-1.1c-2.16-.47-4.11-1-5.76-1.53s-3-1-4.07-1.48-1.65-.74-2.06-.95Zm-49-34-.23.48,5.38,1.37-.08.16L282,175.53l-.26.56,6,1.52-.08.17-7.78-2,.72-1.54,7.47,1.91-.08.16ZM306,180.73l-.43.91c-.16.34,1.15.84,3,1.31,2.05.52,3.44.71,3.6.37l.42-.91,1.81.46-.42.9c-.22.47-2.55.09-5.55-.67-2.83-.73-4.88-1.45-4.66-1.92l.42-.91Zm-47.84-8,58.79,15-.18.38-58.79-15ZM257,175l58.79,15-.18.38-58.78-15Zm-1.08,2.3,58.79,15-.18.38-58.78-15Zm-1.07,2.29,58.78,15-.18.38-58.78-15Zm-1.08,2.3,58.78,15-.18.38-58.78-15Zm-1.08,2.29,58.78,15-.17.38-58.79-15Zm-1.08,2.3,58.79,15-.18.38-58.79-15Zm-1.08,2.29,58.79,15-.18.37-58.78-15Z" transform="translate(0 -3.58)" fill="none" stroke="#eee" stroke-miterlimit="10"/><path d="M441.21,187c7.13-15.17-9.68-34.43-41.11-51.35,0-.13,0-.26,0-.39a4.68,4.68,0,0,0-1.18-2.89,15.44,15.44,0,0,0-3.79-3.12,42.86,42.86,0,0,0-5.41-2.78c-1.77-.77-3.7-1.52-5.91-2.29-1.87-.65-3.86-1.3-5.9-1.91-4.19-1.28-8.18-2.33-11.18-3.1l-.53-.13c-1.74-.45-3.54-.89-5.76-1.44l-.24-.26c-.37-.39-1-1-1.84-1.79a34.54,34.54,0,0,0-3.61-2.83,46.67,46.67,0,0,0-6.29-3.62,66.23,66.23,0,0,0-9.67-3.73,88.12,88.12,0,0,0-11.89-2.69,93.57,93.57,0,0,0-11.83-1.09,72.17,72.17,0,0,0-10.42.42c-1.21.14-2.35.31-3.42.52l-.73.15c-62.73-11.31-116.77-5.14-126.79,16.19-5.51,11.72,3.27,25.89,22,39.53a3.19,3.19,0,0,0-1.73,3.27c.21,1.56,1.42,3.05,3.43,4.21a4.15,4.15,0,0,0-1.17,3.53,4.85,4.85,0,0,0,1.27,2.3c.18.2.37.39.62.62l.77.69.41.35.64.53A45.59,45.59,0,0,0,206,178a53.34,53.34,0,0,0,7.34,3.52,61,61,0,0,0,7.16,2.29l.6.15c1.19.3,2.36.55,3.46.75s2,.35,2.95.47l1.5.18-3,6.31,102,26h0l2.94-6.26c1.48.57,3,1.11,4.68,1.6,2.25.69,4.72,1.32,7.16,1.81a78,78,0,0,0,8.39,1.22,68.61,68.61,0,0,0,8.35.23c1.23,0,2.5-.13,3.86-.26s2.48-.28,3.57-.46l.93-.16a13.66,13.66,0,0,0,2.41-.67,7.53,7.53,0,0,0,2.22-1.27,4.37,4.37,0,0,0,1.56-3.27,6.33,6.33,0,0,0-.13-1.41c34.78-.21,60.56-7.69,67.17-21.76" transform="translate(0 -3.58)" fill="none" stroke="#eee" stroke-miterlimit="10"/><path d="M336.94,107.15a48.48,48.48,0,0,1,7.26,3,33.19,33.19,0,0,1,4.68,2.93,23.77,23.77,0,0,1,2.71,2.35c.18.18.91.66,1.06.82-4-1-8-2.13-10.44-2.87a37.12,37.12,0,0,1-3.77-1.3c-.4-.16-.7-.3-.89-.4l-.28-.14.21.15a6.43,6.43,0,0,0,.73.45,27.63,27.63,0,0,0,3.54,1.57c1.64.63,3.72,1.34,6.14,2.09,1.67.53,3.51,1.08,5.47,1.65l0,0h.14l2.51.73c3,.86,6.21,1.78,9.57,2.76s6.86,2,10.32,3.16c1.73.57,3.45,1.16,5.11,1.77s3.26,1.26,4.73,1.92c2.93,1.32,5.25,2.72,6.29,4.06a2.94,2.94,0,0,1,.28,3.78,3.86,3.86,0,0,1-1.69,1.34,8.09,8.09,0,0,1-3,.49,27.5,27.5,0,0,1-4.28-.43c-1.58-.26-3.24-.64-4.87-1-3.27-.8-6.44-1.72-9.38-2.59s-5.68-1.68-8.17-2.36a65,65,0,0,0-6.68-1.56,14.45,14.45,0,0,0-2.48-.22,3.12,3.12,0,0,0-1.3.25.83.83,0,0,0-.36.31.44.44,0,0,0-.06.13l.15-.1a2.09,2.09,0,0,1,.57-.21,4.36,4.36,0,0,1,1.33-.06,14.53,14.53,0,0,1,2.17.36c1.67.39,3.68,1,6,1.81l.11,0h-.61c-3.9.23-5.95,2.65-5.71,6.61-9.68-6.22-40.8-16-52.66-18.37,7.63-1.84,9.29-3.95,5.45-6.89l3.35.65c3,.54,5.68,1,8.07,1.31s4.45.64,6.15.87l3.95.54,1.4.2-1.41-.23-4-.61-6.18-1c-2.39-.4-5.09-.87-8-1.46-1.47-.29-3-.61-4.56-1s-3.16-.77-4.72-1.24a22.87,22.87,0,0,1-4.19-1.65,4.23,4.23,0,0,1-1.21-.94,1.11,1.11,0,0,1-.29-.9c.09-.58.68-1.07,1.44-1.51a13.15,13.15,0,0,1,1.3-.63l.17-.07.08,0,.1,0,.39-.14c.26-.09.51-.18.78-.26a38.14,38.14,0,0,1,7.86-1.38,72.51,72.51,0,0,1,9.72-.1,82.92,82.92,0,0,1,10.37,1.18,69,69,0,0,1,9.52,2.35" transform="translate(0 -3.58)" fill="none" stroke="#eee" stroke-miterlimit="10"/><path d="M245.4,171.59l-.14,0c-1.3-.37-1.73,0-1.94.23a.44.44,0,0,0,0,.54.92.92,0,0,0,.27.23l-1.6-.4c-2.88-.73-6.14-1.65-7.95-2.19-3.68-1.1-6.29-2.59-5.7-3.24.25-.27,1-.52,4.48.37.8.2,1.68.45,2.7.75a94.61,94.61,0,0,1,9.93,3.75" transform="translate(0 -3.58)" fill="none" stroke="#eee" stroke-miterlimit="10"/><path d="M244.2,171.52c.37.23.54.47.4.66s-.5.25-1,.22l-.06-.06c-.09-.13-.07-.29.07-.48a.85.85,0,0,1,.59-.34" transform="translate(0 -3.58)" fill="none" stroke="#eee" stroke-miterlimit="10"/><path d="M244.82,172.24c.15-.21,0-.48-.45-.73a2.74,2.74,0,0,1,.7.09l.13,0,1.41.4a3.37,3.37,0,0,1,1.14.52c.26.2.34.4.23.55-.23.31-1.21.34-2.2.06l-1.42-.4a2.35,2.35,0,0,1-.66-.28,1.43,1.43,0,0,0,1.12-.25" transform="translate(0 -3.58)" fill="none" stroke="#eee" stroke-miterlimit="10"/><path d="M228.35,169.05c2.41.72,7.94,2.53,11.88,4-.93-.14-1.25.16-1.41.42a.49.49,0,0,0,0,.61.81.81,0,0,0,.21.2c-2.75-.57-5.89-1.32-8.21-1.91-1.58-.4-2.94-.77-3.83-1-3.68-1.11-6.29-2.59-5.7-3.24s3.05-.15,5,.35c.63.16,1.31.36,2,.57" transform="translate(0 -3.58)" fill="none" stroke="#eee" stroke-miterlimit="10"/><path d="M239.7,173.18c.46.25.66.52.51.73s-.56.26-1.12.21l0,0h0a.48.48,0,0,1,0-.57.83.83,0,0,1,.59-.39" transform="translate(0 -3.58)" fill="none" stroke="#eee" stroke-miterlimit="10"/><path d="M240.43,174c.16-.23-.06-.53-.57-.81a3.1,3.1,0,0,1,.88.12l1.64.44c1.09.29,1.81.83,1.59,1.19s-1.23.42-2.31.14l-1.63-.44a1.91,1.91,0,0,1-.86-.4c.63.06,1.1,0,1.26-.24" transform="translate(0 -3.58)" fill="none" stroke="#eee" stroke-miterlimit="10"/><path d="M239.55,175.71c.45.28.67.62.5.85a.91.91,0,0,1-.75.21.59.59,0,0,1-.21-.68.71.71,0,0,1,.46-.38" transform="translate(0 -3.58)" fill="none" stroke="#eee" stroke-miterlimit="10"/><path d="M240.27,176.62c.18-.25-.07-.64-.59-1h0a3,3,0,0,1,1.29.09l1.63.41c1.11.28,1.87.83,1.7,1.24-.08.2-.37.33-.81.38a4.64,4.64,0,0,1-1.53-.15l-1.64-.4a2.59,2.59,0,0,1-.9-.38,1,1,0,0,0,.84-.24" transform="translate(0 -3.58)" fill="none" stroke="#eee" stroke-miterlimit="10"/><path d="M239.48,175.55a.86.86,0,0,0-.67.47c-.18.42.17.83.9,1.12-3.57-.5-8.19-1.47-11.38-2.28l-1.68-.46a30.21,30.21,0,0,1-4.57-1.68c-1-.49-1.31-.87-1-1.17.51-.56,3.32-.36,6.53.45l1.36.38c.85.26,2.09.61,3.52,1,2.26.64,5,1.41,7.32,2.13a1.36,1.36,0,0,0-.29,0" transform="translate(0 -3.58)" fill="none" stroke="#eee" stroke-miterlimit="10"/><path d="M231.65,180.19a19.24,19.24,0,0,0-.85,2.14c-24.81-7.47-16.35-13.81-14-14.54.33-.1.64,0,.57.11-2.9,7.37,14.28,12.29,14.28,12.29" transform="translate(0 -3.58)" fill="none" stroke="#eee" stroke-miterlimit="10"/><path d="M231.57,178.62l-.12,0c-4.28-1.29-7-2.17-6.56-2.71s2.86-.34,6.06.47c.53.14,1.08.29,1.64.46l2.62.76c1.91.54,4.22,1.2,6,1.81H241a1.06,1.06,0,0,0-.87.39.39.39,0,0,0,0,.53,1.63,1.63,0,0,0,.78.45c-1.93-.32-4.44-.84-7-1.49-.87-.23-1.68-.45-2.32-.64" transform="translate(0 -3.58)" fill="none" stroke="#eee" stroke-miterlimit="10"/><path d="M241,179.51c.44.28.65.61.49.84s-.42.23-.83.21a.92.92,0,0,1-.31-.23.37.37,0,0,1,0-.48.83.83,0,0,1,.62-.34" transform="translate(0 -3.58)" fill="none" stroke="#eee" stroke-miterlimit="10"/><path d="M241.73,180.41c.18-.24,0-.61-.53-.92a3.09,3.09,0,0,1,.74.1l.12,0,1.41.4a3.43,3.43,0,0,1,1.15.52c.25.2.34.4.22.55-.22.3-1.2.33-2.2.05l-1.41-.4a2,2,0,0,1-.32-.1,1,1,0,0,0,.82-.24" transform="translate(0 -3.58)" fill="none" stroke="#eee" stroke-miterlimit="10"/><path d="M342,195c1.06.23,2,.44,2.76.64,3.5.89,3.86,1.42,3.83,1.75-.08.78-3.38.76-7.2-.05-1.61-.34-4.23-.93-6.74-1.57h0l-2.6-.7h.35c.43,0,.69-.19.74-.38.09-.4-.77-.95-1.95-1.22l-.14,0c.62.05,1.35.12,2.21.22,2.9.33,6.58.9,8.74,1.35" transform="translate(0 -3.58)" fill="none" stroke="#eee" stroke-miterlimit="10"/><path d="M333.73,206.19s17.63,3.95,21.54-3.16c.09-.17.37-.06.54.17,1.23,1.64,2.57,10.47-23.21,5.06a19.85,19.85,0,0,0,1.13-2.07" transform="translate(0 -3.58)" fill="none" stroke="#eee" stroke-miterlimit="10"/><path d="M327,198.49c.18-.37,1.24-.45,2.38-.16l1.61.41a4.63,4.63,0,0,1,1.27.52,1.65,1.65,0,0,0-.87.25c-.22.19-.13.45.26.77a5.14,5.14,0,0,1-1.3-.18l-1.61-.4,0,0,0-.05c-1.13-.28-1.91-.82-1.74-1.2" transform="translate(0 -3.58)" fill="none" stroke="#eee" stroke-miterlimit="10"/><path d="M331.84,200.28c-.35-.3-.43-.53-.23-.7a1.42,1.42,0,0,1,.79-.23c.28.21.42.42.34.6s-.38.29-.83.32h-.07" transform="translate(0 -3.58)" fill="none" stroke="#eee" stroke-miterlimit="10"/><path d="M332.08,200.39c.52,0,.85-.16.95-.37s-.23-.66-.87-1c2.45.5,5.23,1.13,7.59,1.67l3.62.81c.46.1.93.2,1.38.32,3.21.82,5.59,1.94,5.52,2.62-.09.84-3.61.41-6.88-.28l-1.42-.34h0a116.36,116.36,0,0,1-11.32-3.58,5.21,5.21,0,0,0,1.43.12" transform="translate(0 -3.58)" fill="none" stroke="#eee" stroke-miterlimit="10"/><path d="M345.74,201.61c-.92-.19-2.3-.52-3.87-.92-2.27-.58-5.29-1.4-7.9-2.19a3.91,3.91,0,0,0,.6,0c.49-.06.78-.21.83-.43s-.49-.79-1.36-1.11c4.3.62,9.95,1.67,12.58,2.22.74.16,1.44.32,2.07.48,2,.51,4.33,1.26,4.25,2s-3.38.76-7.2,0" transform="translate(0 -3.58)" fill="none" stroke="#eee" stroke-miterlimit="10"/><path d="M334.42,198.36c-.51-.39-.38-.67-.25-.81a.69.69,0,0,1,.42-.19l0,0c.38.22.6.47.55.68s-.29.31-.69.36" transform="translate(0 -3.58)" fill="none" stroke="#eee" stroke-miterlimit="10"/><path d="M334,197.49c-.14.14-.28.45.29.89a5.41,5.41,0,0,1-1.39-.13l-1.62-.37c-1.16-.27-2-.8-1.92-1.2,0-.19.3-.32.73-.37a4.93,4.93,0,0,1,1.52.13l1.63.37.15,0a5.47,5.47,0,0,1,1.12.43.79.79,0,0,0-.51.22" transform="translate(0 -3.58)" fill="none" stroke="#eee" stroke-miterlimit="10"/><path d="M332.37,194.89c-.37-.35-.3-.55-.16-.66a.69.69,0,0,1,.34-.13c.24.17.36.34.33.49s-.22.25-.51.3" transform="translate(0 -3.58)" fill="none" stroke="#eee" stroke-miterlimit="10"/><path d="M332,194.16c-.15.12-.23.36.2.76h0a4.08,4.08,0,0,1-1.32-.08l-1-.25-.55-.14c-.94-.24-1.62-.69-1.55-1,0-.17.27-.28.64-.32a4,4,0,0,1,1.34.1l1.44.33.14,0a4,4,0,0,1,1.09.43.85.85,0,0,0-.42.15" transform="translate(0 -3.58)" fill="none" stroke="#eee" stroke-miterlimit="10"/><path d="M327.81,202.64h0c-.38-.31-.33-.51-.21-.64a1.2,1.2,0,0,1,.64-.25c.28.18.44.38.4.55s-.26.28-.64.32l-.19,0" transform="translate(0 -3.58)" fill="none" stroke="#eee" stroke-miterlimit="10"/><path d="M327.39,201.94c-.14.13-.19.36.23.7h0a5,5,0,0,1-1.15-.09l-1.4-.4h0l-.14,0a4.53,4.53,0,0,1-.82-.32c-.39-.22-.62-.45-.57-.65s.26-.29.64-.33a4.26,4.26,0,0,1,1.33.11l1.45.33.14,0a4.88,4.88,0,0,1,1,.38,1.32,1.32,0,0,0-.7.28" transform="translate(0 -3.58)" fill="none" stroke="#eee" stroke-miterlimit="10"/><path d="M327.21,202.71a4.13,4.13,0,0,0,1,0c.43-.05.7-.18.74-.38s-.31-.59-.91-.87c1.91.32,4.67.84,8.68,1.69l1.38.32c3.22.82,5.59,1.94,5.52,2.62,0,.13-.13.21-.36.24a29.45,29.45,0,0,1-5.92-1l-1.27-.27c-.81-.17-1.79-.41-2.83-.67h0c-2.28-.58-4.38-1.2-6-1.75" transform="translate(0 -3.58)" fill="none" stroke="#eee" stroke-miterlimit="10"/><path d="M308.62,126.34c-1.51-3-5.43-3.77-9.27-4.25" transform="translate(0 -3.58)" fill="none" stroke="#eee" stroke-miterlimit="10"/><path d="M299,122.39a21.62,21.62,0,0,1,7.45,2.86" transform="translate(0 -3.58)" fill="none" stroke="#eee" stroke-miterlimit="10"/><path d="M341.85,147.27c-1.43,1.69-5.94,2.61-26.34-.13-23.6-3.17-25-5.33-25.09-6.29a1.78,1.78,0,0,1,.68-1.37c-5.18,2-11.73-8-4.73-10-.73-.36-1.49-.9-1.53-1.76s.87-1.7,2.05-2c3.4-.74,7.65.87,9.94-1.37.89-1.31,2.66-3.92,3.55-3.27,20.74-1.07,24.48,6.27,36.35,9.14a14.09,14.09,0,0,1,7.09,3.92c1.32,1.13,2.7,2.7,2.16,4.18-.33.93-1.2,1.25-2.07,2C341.15,142.82,346.1,142.25,341.85,147.27Z" transform="translate(0 -3.58)" fill="none" stroke="#eee" stroke-miterlimit="10"/><path d="M310.73,157.59a3,3,0,0,0,2.51-.53l.17-.19.17.06,1.42.49c.54.19,1.14.42,1.79.67l1,.39,1,.44c.68.3,1.4.63,2.07,1a19.89,19.89,0,0,1,3.56,2.31c1,.81,1.86,1.66,3,2.45a14.81,14.81,0,0,0,1.93,1.12c.7.33,1.4.64,2.1.89s1.35.48,1.94.66,1.11.33,1.53.46l1.37.37-1.34-.4c-.41-.14-.93-.29-1.49-.49s-1.19-.42-1.84-.68-1.29-.57-1.92-.89a11.82,11.82,0,0,1-1.68-1.07c-1-.76-1.69-1.57-2.61-2.42A18.39,18.39,0,0,0,322,159.7c-.68-.39-1.41-.76-2.12-1.1l-1.06-.49-1-.44c-.67-.28-1.28-.53-1.85-.75l-1.48-.56-.52-.19a3.59,3.59,0,0,0,.27-.47c2.69.78,5,1.43,7.11,2,9.72,2.71,13.36,3.73,19.62,7.75,1.95,1.25,1.94,2.51,1.94,4.09a8.1,8.1,0,0,0,2.18,6.13c-17.41-6.3-32.76-12.18-35.27-15.75-.68-1-.36-1.74,1-2.34" transform="translate(0 -3.58)" fill="none" stroke="#eee" stroke-miterlimit="10"/><path d="M309.84,156.59a43,43,0,0,1-4-1.49l-2.53-1a24.59,24.59,0,0,0-2.51-.78c-1-.25-2-.46-3-.66s-1.68-.35-2.39-.53a8,8,0,0,1-1.62-.55c-.2-.56,1.82-2.53,3.05-2.7,3.59-.52,4.63-.48,6.1-.1.64.16,1.41.4,2.38.7,1.45.45,3.42,1.07,6.21,1.82a.92.92,0,0,1,.36.19c1.32,1,.39,3.6-.84,4.9a1,1,0,0,1-1.17.21" transform="translate(0 -3.58)" fill="none" stroke="#eee" stroke-miterlimit="10"/><path d="M315.19,154.18a1.06,1.06,0,0,1,.46-.31,5.6,5.6,0,0,1,1.27-.32,32.55,32.55,0,0,1,4.79-.19c2,0,4.15.14,6.38.27s4.48.29,6.59.41,4.06.2,5.64.18a15.91,15.91,0,0,0,2-.13,2.1,2.1,0,0,0,1.08-.36.35.35,0,0,0,.09-.43,1.15,1.15,0,0,0-.11-.17,1.78,1.78,0,0,1,.07.17c0,.1,0,.25-.19.38a2.62,2.62,0,0,1-1.15.28,17,17,0,0,1-2.07,0c-1.61,0-3.59-.2-5.74-.4l-6.79-.66c-2.32-.23-4.64-.43-6.79-.55a40.66,40.66,0,0,0-5.74,0l-.4,0a2.62,2.62,0,0,0-.77-1,5.64,5.64,0,0,0-1.9-.88c-2.66-.71-4.48-1.28-5.95-1.74-1.07-.33-1.91-.6-2.72-.8a15,15,0,0,0-6-.33c-.09-.09-.18-.19-.3-.29a13.78,13.78,0,0,0-1.54-1.13A5.66,5.66,0,0,0,295,146l-.52-.32-1.15-.64c-.8-.43-1.69-.87-2.62-1.32s-1.93-.89-3-1.33-2.07-.89-3.12-1.33c-4.22-1.75-8.54-3.42-11.53-4.77-.74-.34-1.4-.65-1.95-.94-.28-.14-.53-.27-.74-.4s-.41-.25-.57-.35a4,4,0,0,1-.38-.29,1.23,1.23,0,0,1-.23-.22,2.21,2.21,0,0,1-.15-.18l.11.18a.68.68,0,0,0,.19.21,1.79,1.79,0,0,0,.34.3,5.56,5.56,0,0,0,.52.37c.19.13.43.27.69.42.51.3,1.14.63,1.84,1,2.84,1.42,7,3.2,10.9,5,1,.46,1.95.91,2.87,1.36s1.81.9,2.64,1.33,1.57.86,2.23,1.26c.33.2.65.39.92.58l.42.28.35.26a7.11,7.11,0,0,1,1.06.92,2.19,2.19,0,0,1,.3.36,1.29,1.29,0,0,1,.19.29l.05.1a6.86,6.86,0,0,0-2.08,1.27c-3.2-5.37-18.3-10.07-28.56-13.26-4.1-1.28-8.34-2.6-9.25-3.23-.17-.12-.3-.24,0-.38,2.32-.94,17.89.25,26.66,2.34.92,1.52,3.09,3.72,8.24,5.82l.05,0a.78.78,0,0,0,.05.36,2.57,2.57,0,0,0,.22.49,4.76,4.76,0,0,0,.44.54,8,8,0,0,0,1.49,1.18,17.62,17.62,0,0,0,2.28,1.2c.56.25,1.17.48,1.8.7,3.37,1.63,9.41,3.61,14.87,3.22,7.26,2,23.57,4.44,29,1.89,10.69,4.81,23.11,13.06,24,15.44-2.22.13-13.63-3-22.05-5.37-14.3-4-23.4-6.39-26.7-6.08" transform="translate(0 -3.58)" fill="none" stroke="#eee" stroke-miterlimit="10"/><path d="M266.88,148.59c-.2-.42,0-.7.51-.85,2.1-.59,9.32.6,15.68,1.66l4.55.74h-.29l-.47,0-.47,0c-.32,0-.63.06-.94.1s-.62.1-.93.16-.58.13-.88.2-.57.16-.83.26a16.55,16.55,0,0,0-2.87,1.3c-.87.48-1.68,1-2.55,1.38a8.42,8.42,0,0,1-1.38.54,7.66,7.66,0,0,1-1.57.32,9.76,9.76,0,0,1-1.71,0l-.41,0-.4-.05-.36-.06-.34-.06c-.43-.08-.77-.17-1-.23l-.35-.09.35.1c.22.06.55.16,1,.25l.35.08.38.06.41.07.44.05a9.23,9.23,0,0,0,.93.07h.94a10.89,10.89,0,0,0,1.78-.26,13.36,13.36,0,0,0,1.59-.49c1-.37,2-.82,2.93-1.24a21,21,0,0,1,3.13-1.11c.27-.08.57-.14.84-.2s.57-.11.87-.15l.88-.11c.29,0,.57-.05.86-.05l.42,0h.42c.27,0,.53,0,.78,0,.42,0,.77,0,1.08.07,1.38,4.43-.4,7.09-5.33,7.89-5.9,1-15-1-19.86-2.23-2.58-.65-4.73-1.3-6.21-1.79,7.26.23,10.11-2,8-6.36" transform="translate(0 -3.58)" fill="none" stroke="#eee" stroke-miterlimit="10"/><path d="M185.14,121.8c8.73-18.57,54.14-24.57,108-16.15a2.18,2.18,0,0,0-.87,1.54,2,2,0,0,0,.61,1.34,6.81,6.81,0,0,0,1.54,1.17c-49.33-7.73-90.91-2.24-98.89,14.75-3.71,7.89.36,17.12,10.29,26.38q-2.52,2.65-4.24,4.28c-14.59-11.59-21.13-23.42-16.48-33.31" transform="translate(0 -3.58)" fill="none" stroke="#eee" stroke-miterlimit="10"/><path d="M374.72,203.86c.59-1.47,1.33-3.14,2-4.78h0c22.11-1.8,38-7.78,42.6-17.61,5.74-12.23-7.19-27.69-31.75-41.49,1,.12,2,.19,2.95.22a21.28,21.28,0,0,0,3.3-.13l.73-.11a11,11,0,0,0,1.78-.46c26,14.91,39.6,31.47,33.42,44.63-5.63,12-26.52,18.72-55.09,19.74" transform="translate(0 -3.58)" fill="none" stroke="#eee" stroke-miterlimit="10"/><path d="M296,130c.66,1.39,3.8,1.91,5.08,3.11-1.12-.36-2.73,0-4-.13-2.93-.79-6.48-.79-6.11-4-5.72,1.5,7.07,8.23,11.13,7.51.81,2.65,10.85,3.77,13.72,4.17a55.54,55.54,0,0,0,8,.22c3.38,0,7.79,4.52,2.22,4.31,2.7.17,4.43-1.26,2.35-3" transform="translate(0 -3.58)" fill="none" stroke="#eee" stroke-miterlimit="10"/><path d="M328.45,142.25a10.7,10.7,0,0,0-3.42-1.79,1,1,0,0,0,.36-1.25c-6.39,2.16-10.83-2.41-16.57-3.83,1.18.09,7.51,1.59,7.06.45a11.65,11.65,0,0,1-3.09.32c-1.77-1.31-4.43-.66-7.09-1.31-3.55-1.31-6.21-3.26-9.14-4.85" transform="translate(0 -3.58)" fill="none" stroke="#eee" stroke-miterlimit="10"/><path d="M302.88,135.48c.27-.24.23-.57,0-.91a8,8,0,0,0,.94.33,10.66,10.66,0,0,0,1.13.22,13.26,13.26,0,0,0-2.09.36" transform="translate(0 -3.58)" fill="none" stroke="#eee" stroke-miterlimit="10"/><path d="M334.55,136.26c.1.21.16.32.16.32l-.25-.33c-.09-.1-.16-.22-.31-.37l-.5-.5c-.23-.18-.46-.37-.75-.57a9.13,9.13,0,0,0-1-.62c-.2-.11-.38-.22-.6-.32l-.67-.3-.73-.29c-.24-.1-.5-.19-.76-.28-.51-.18-1.06-.33-1.59-.48s-1.07-.27-1.6-.38-1-.2-1.5-.29-.92-.15-1.33-.2l-1.09-.13-.84-.08c-.49,0-3.12-.93-3.12-.93l1.75-.06.79.1,1,.14,1.3.22c.47.07,1,.19,1.52.29s1.11.25,1.69.41,1.18.32,1.78.5,1.17.39,1.72.61l.81.33c.25.12.52.23.75.35l.68.36c.22.11.39.24.58.35a9.26,9.26,0,0,1,.94.68c.25.22.43.42.62.61l.37.49a2,2,0,0,1,.2.37" transform="translate(0 -3.58)" fill="none" stroke="#eee" stroke-miterlimit="10"/><path d="M265.34,171.37l-.68.56-1.7-.43,1.68-1.29,2.28.58,2,1.34a12.3,12.3,0,0,1,1.15.88h.06c.42-.06,1-.11,1.7-.14l2.81-.12,2.29.58.14,1.76-1.75-.45,0-.76a1.48,1.48,0,0,1,.1-.71l-.06,0c-.55.06-1.22.1-2,.14l-2.79.12-1.35-.35-1.9-1.3a11.67,11.67,0,0,1-1.32-1h-.05a4,4,0,0,1-.58.61" transform="translate(0 -3.58)" fill="none" stroke="#eee" stroke-miterlimit="10"/><path d="M298.94,180.37h0a.91.91,0,0,1,.09-.68l.3-.64,1.68.42-.72,1.54-1.8-.46-4-1.9c-.89-.42-1.73-.83-2.35-1.17h-.06a1.31,1.31,0,0,1-.16.66l-.3.66-1.69-.43.72-1.53,1.95.49,4.07,1.91c.95.44,1.67.81,2.26,1.13" transform="translate(0 -3.58)" fill="none" stroke="#eee" stroke-miterlimit="10"/><path d="M281.15,201c-.26.55-1.84.66-3.53.23s-2.84-1.23-2.58-1.79,1.84-.66,3.53-.23,2.84,1.23,2.58,1.79" transform="translate(0 -3.58)" fill="none" stroke="#eee" stroke-miterlimit="10"/><path d="M230.21,171.57a2.61,2.61,0,0,1,.17-.52,3.05,3.05,0,0,1,.3-.48,1.67,1.67,0,0,1,.19-.21,1.41,1.41,0,0,1,0,.25,2.17,2.17,0,0,1-.17.51,2.76,2.76,0,0,1-.3.49,2.05,2.05,0,0,1-.19.2,1.27,1.27,0,0,1,0-.24" transform="translate(0 -3.58)" fill="none" stroke="#eee" stroke-miterlimit="10"/><path d="M231.93,174.44a2.46,2.46,0,0,1,.3-.48,2.36,2.36,0,0,1,.18-.21.92.92,0,0,1,0,.25,2.61,2.61,0,0,1-.17.52,3.05,3.05,0,0,1-.3.48,1.67,1.67,0,0,1-.19.21,1.33,1.33,0,0,1,0-.25,2.09,2.09,0,0,1,.17-.52" transform="translate(0 -3.58)" fill="none" stroke="#eee" stroke-miterlimit="10"/><path d="M236.35,170a1.79,1.79,0,0,1,.17-.51,2.65,2.65,0,0,1,.29-.48,1.67,1.67,0,0,1,.19-.21,2.09,2.09,0,0,1,0,.25,2.25,2.25,0,0,1-.18.51,2.54,2.54,0,0,1-.29.49,2.05,2.05,0,0,1-.19.2,1.41,1.41,0,0,1,0-.25" transform="translate(0 -3.58)" fill="none" stroke="#eee" stroke-miterlimit="10"/><path d="M233.34,177.54a2.76,2.76,0,0,1-.17.51,2.65,2.65,0,0,1-.3.48,1.67,1.67,0,0,1-.19.21,1.41,1.41,0,0,1,0-.25,2.17,2.17,0,0,1,.17-.51,2.55,2.55,0,0,1,.3-.49,2.05,2.05,0,0,1,.19-.2,1.41,1.41,0,0,1,0,.25" transform="translate(0 -3.58)" fill="none" stroke="#eee" stroke-miterlimit="10"/><path d="M342.6,199.07a2.61,2.61,0,0,1-.17.52,3.05,3.05,0,0,1-.3.48,1.67,1.67,0,0,1-.19.21,1.41,1.41,0,0,1,0-.25,2.17,2.17,0,0,1,.17-.51,2.28,2.28,0,0,1,.3-.49,2.05,2.05,0,0,1,.19-.2,1.27,1.27,0,0,1,0,.24" transform="translate(0 -3.58)" fill="none" stroke="#eee" stroke-miterlimit="10"/><path d="M338.53,201a2.17,2.17,0,0,1-.17.51,3.17,3.17,0,0,1-.29.49,2.05,2.05,0,0,1-.19.2,2.09,2.09,0,0,1,0-.25,2.25,2.25,0,0,1,.18-.51,2.65,2.65,0,0,1,.29-.48,1.67,1.67,0,0,1,.19-.21,1.41,1.41,0,0,1,0,.25" transform="translate(0 -3.58)" fill="none" stroke="#eee" stroke-miterlimit="10"/><path d="M338.46,196a2.17,2.17,0,0,1,.17-.51,2.28,2.28,0,0,1,.3-.49,1.49,1.49,0,0,1,.18-.2.86.86,0,0,1,0,.24,2.15,2.15,0,0,1-.18.52,2.18,2.18,0,0,1-.29.48,1.67,1.67,0,0,1-.19.21,1.41,1.41,0,0,1,0-.25" transform="translate(0 -3.58)" fill="none" stroke="#eee" stroke-miterlimit="10"/><path d="M334.19,204.34a2.17,2.17,0,0,1,.17-.51,2.76,2.76,0,0,1,.3-.49,2.05,2.05,0,0,1,.19-.2,1.27,1.27,0,0,1,0,.24,2.09,2.09,0,0,1-.17.52,3.05,3.05,0,0,1-.3.48,1.67,1.67,0,0,1-.19.21,1.41,1.41,0,0,1,0-.25" transform="translate(0 -3.58)" fill="none" stroke="#eee" stroke-miterlimit="10"/><path d="M303.86,162c-.14.31-1,.37-2,.13s-1.6-.69-1.46-1,1-.37,2-.13,1.6.7,1.45,1" transform="translate(0 -3.58)" fill="none" stroke="#eee" stroke-miterlimit="10"/><path d="M301.77,166.42c-.15.32-1,.38-2,.13s-1.6-.69-1.45-1,1-.37,2-.13,1.6.69,1.45,1" transform="translate(0 -3.58)" fill="none" stroke="#eee" stroke-miterlimit="10"/><path d="M226.62,179.84c.13-.27.89-.32,1.7-.11s1.37.59,1.25.86-.89.32-1.71.11-1.37-.59-1.24-.86" transform="translate(0 -3.58)" fill="none" stroke="#eee" stroke-miterlimit="10"/><path d="M335,207.46c.13-.27.89-.32,1.7-.12s1.37.6,1.25.87-.89.31-1.71.11-1.37-.6-1.24-.86" transform="translate(0 -3.58)" fill="none" stroke="#eee" stroke-miterlimit="10"/><path d="M170.17,217.44c1.09-2.34,2.58-5.34,3.52-7.09l-.2,0c-2.55,2.94-6.33,7-10.21,10.84l-5.94-1.52c.52-4.61.94-9.49,1.5-13.08l-.22-.06c-.61,1.82-1.84,4.78-3,7.35l-2.22,4.77-6.61-1.7,7-15,10.67,2.75a89.81,89.81,0,0,1-1.21,10.48l.13,0a110.37,110.37,0,0,1,8.29-8.66L182,209.18l-7,15-7.13-1.83Z" transform="translate(0 -3.58)" fill="#eee" stroke="#eee"/><path d="M198.48,226.4a23.63,23.63,0,0,0-1.35,3.45l-6.61-1.7a3.25,3.25,0,0,1,.2-1.13c-1.25.47-3,.73-6.05-.07-4.32-1.11-5.91-3.32-5-5.35,1.25-2.68,5.42-2.9,11.3-1.39l2.37.61.29-.63c.34-.74.15-1.38-1.58-1.83s-2.25-.08-2.76.61l-6.61-1.7c1.14-1.84,3.92-3.22,10.76-1.45,6.31,1.64,8.19,3.74,6.91,6.49ZM192.37,223l-1.58-.4c-2.47-.64-3.52-.33-3.91.51-.32.67.1,1.38,1.53,1.75,2.43.62,3.23-.28,3.8-1.5Z" transform="translate(0 -3.58)" fill="#eee" stroke="#eee"/><path d="M205,222.41c.46-1,.95-2.06,1.33-3l7,1.79a7.05,7.05,0,0,1-.36,1.32c1-.47,3.05-.94,6.19-.13,3.85,1,5.57,3.16,4.27,6L220,235.72l-7.15-1.84L216,227c.51-1.1.27-1.86-1.38-2.28-1.5-.39-2.65-.16-3.4,1.44l-3,6.51-7.16-1.85Z" transform="translate(0 -3.58)" fill="#eee" stroke="#eee"/><path d="M243.23,237.91a23.2,23.2,0,0,0-1.35,3.44l-6.61-1.7a3.07,3.07,0,0,1,.2-1.13c-1.25.47-3,.73-6.06-.07-4.31-1.11-5.9-3.32-5-5.34,1.25-2.69,5.42-2.91,11.3-1.4l2.37.61.29-.63c.34-.73.15-1.38-1.58-1.83s-2.25-.08-2.76.61l-6.61-1.7c1.14-1.84,3.92-3.22,10.76-1.44,6.31,1.63,8.19,3.73,6.91,6.48Zm-6.11-3.45-1.59-.41c-2.46-.64-3.51-.33-3.91.51-.31.67.11,1.38,1.54,1.75,2.43.62,3.23-.28,3.8-1.5Z" transform="translate(0 -3.58)" fill="#eee" stroke="#eee"/><path d="M256.23,237.14c1.65-.8,4.2-1.88,7-3.06l8,2.06-8.08,2.71c.25,1,3,7.84,3.26,8.83l-8-2.07c0-.34-1.43-5.13-1.43-5.36l-2.57.69L253,244.19l-7.17-1.84,7.34-15.76,7.17,1.84Z" transform="translate(0 -3.58)" fill="#eee" stroke="#eee"/><path d="M282.7,234.19l-2.59,5.55a10.22,10.22,0,0,1,6.13-.07c4,1,5.64,3.11,4.32,5.93L287.13,253,280,251.15l3.2-6.87c.53-1.14.19-1.86-1.4-2.27-2.16-.56-2.91.36-3.56,1.76L275.36,250l-7.17-1.84,7.34-15.76Z" transform="translate(0 -3.58)" fill="#eee" stroke="#eee"/><path d="M291.19,254l7.34-15.76,7.17,1.84-7.34,15.76Z" transform="translate(0 -3.58)" fill="#eee" stroke="#eee"/><path d="M313.8,247.06a65.05,65.05,0,0,1-.69,8.51l.12,0c1.09-1.39,3.06-3.62,6.39-7l7.07,1.81L316,259.64c-3.66,3.17-5.84,4.17-11.92,2.6-.47-.12-1.89-.52-2.92-.86l1.42-3c.25.08.86.27,1.33.39,1.67.43,2.7.39,3.6-.33L306,245.06Z" transform="translate(0 -3.58)" fill="#eee" stroke="#eee"/><path d="M355.56,265.09c1.09-2.34,2.58-5.34,3.52-7.09l-.2-.05c-2.55,2.94-6.33,7-10.21,10.85l-5.94-1.53c.52-4.61.94-9.49,1.5-13.08l-.22-.06c-.61,1.82-1.84,4.78-3,7.35l-2.22,4.77-6.61-1.7,7-15,10.68,2.75a91.84,91.84,0,0,1-1.22,10.48l.13,0a107.14,107.14,0,0,1,8.3-8.67l10.36,2.67-7,15L353.28,270Z" transform="translate(0 -3.58)" fill="#eee" stroke="#eee"/><path d="M373.17,269.65c-.53,1.15-.33,2.49,1.79,3,1.69.44,2.38.14,3-.37l7,1.81c-1.4,1.33-4.68,3.12-11.5,1.37-7.27-1.87-8.6-5.46-7.21-8.44,1.6-3.44,5.9-5.29,12.91-3.49,7.47,1.92,8.35,5.5,7,8.35a6.16,6.16,0,0,1-.52,1Zm6.46-.82c.48-1.07.38-2.11-1.67-2.63s-3,.15-3.69,1.25Z" transform="translate(0 -3.58)" fill="#eee" stroke="#eee"/><path d="M406,279.75a22.56,22.56,0,0,0-1.34,3.44l-6.61-1.7a3.27,3.27,0,0,1,.19-1.13c-1.24.48-2.95.73-6.05-.06-4.32-1.11-5.9-3.32-5-5.35,1.25-2.68,5.42-2.91,11.3-1.4l2.36.61.3-.63c.34-.73.15-1.38-1.58-1.82s-2.25-.09-2.76.6l-6.61-1.69c1.14-1.84,3.92-3.23,10.76-1.45,6.3,1.64,8.19,3.74,6.91,6.49Zm-6.1-3.45-1.59-.41c-2.47-.63-3.52-.33-3.91.51-.31.67.11,1.38,1.53,1.75,2.43.62,3.23-.27,3.8-1.5Z" transform="translate(0 -3.58)" fill="#eee" stroke="#eee"/><path d="M408.58,284.19l7.34-15.76,7.16,1.84L415.74,286Z" transform="translate(0 -3.58)" fill="#eee" stroke="#eee"/><path d="M427,285c0,.8.8,1.47,2.36,1.87s2.15.27,2.39-.26-.49-1-2.87-2c-6.22-2.59-6.57-4.13-5.82-5.74s3.64-3.12,10.23-1.43c6.28,1.62,7.65,4.11,7.09,5.76l-6.42-1.65c0-.44-.11-1.12-2.05-1.62-1.28-.33-1.89-.14-2.07.25s.33.8,3.26,2c5.77,2.4,6.5,4,5.66,5.79-.94,2-4.27,3.16-10.86,1.46-6.28-1.61-8.09-4.07-7.54-6.19Z" transform="translate(0 -3.58)" fill="#eee" stroke="#eee"/><path d="M571.69-200.13" transform="translate(0 -3.58)" fill="none" stroke="#eee"/><rect width="549.9" height="393.72" fill="none"/></svg>